<svg width="30" height="30" viewBox="0 0 30 30" fill="none" xmlns="http://www.w3.org/2000/svg">
<path fill-rule="evenodd" clip-rule="evenodd" d="M15 29.4999C24.3352 29.4999 29 23.2319 29 15.5C29 7.768 24.3352 1.5 15 1.5C5.66481 1.5 1 7.768 1 15.5C1 23.2319 5.66481 29.4999 15 29.4999ZM10.4884 19.06C10.9664 18.6907 11.6533 18.7789 12.0226 19.2569C12.3328 19.6584 13.4886 20.641 15.1502 20.641C16.8202 20.641 18.0577 19.6497 18.4101 19.226C18.7964 18.7617 19.4861 18.6984 19.9504 19.0847C20.4148 19.471 20.4781 20.1607 20.0918 20.625C19.4408 21.4075 17.6332 22.8285 15.1502 22.8285C12.659 22.8285 10.9131 21.3988 10.2915 20.5942C9.92219 20.1162 10.0104 19.4293 10.4884 19.06ZM13.1884 13.6884C13.1884 15.3713 11.8242 16.7355 10.1413 16.7355C8.45845 16.7355 7.09421 15.3713 7.09421 13.6884C7.09421 12.0055 8.45845 10.6413 10.1413 10.6413C11.8242 10.6413 13.1884 12.0055 13.1884 13.6884ZM23.3455 13.6884C23.3455 15.3713 21.9813 16.7355 20.2984 16.7355C18.6155 16.7355 17.2513 15.3713 17.2513 13.6884C17.2513 12.0055 18.6155 10.6413 20.2984 10.6413C21.9813 10.6413 23.3455 12.0055 23.3455 13.6884Z" fill="#1C1D20" style="fill:#1C1D20;fill:color(display-p3 0.1098 0.1137 0.1255);fill-opacity:1;"/>
</svg>
