<svg width="24" height="24" viewBox="0 0 24 24" fill="none" xmlns="http://www.w3.org/2000/svg">
<path d="M12.6568 6.00104H19.0746C19.9773 6.00104 20.6463 6.67 20.6463 7.57274V8.35859L10.4302 16.61L1.47888 20.3275C1.17366 19.8558 1 19.182 1 18.5747V4.49247C1 3.58973 1.73207 2.85764 2.63478 2.85764H7.8804C8.51587 2.85764 9.12536 3.10919 9.57598 3.55737L11.5035 5.51976C11.81 5.82427 12.2248 6.00104 12.6568 6.00104Z" fill="#FFB02E" style="fill:#FFB02E;fill:color(display-p3 1.0000 0.6902 0.1804);fill-opacity:1;"/>
<path d="M21.3622 8.35858H7.98306C7.38723 8.3587 6.80597 8.54291 6.31883 8.886C5.8317 9.22909 5.46247 9.71428 5.26164 10.2752C1.6538 20.621 1.95163 19.8775 1.86047 19.9938C1.82191 20.0534 1.76924 20.1025 1.70713 20.1368C1.64503 20.171 1.57541 20.1894 1.50448 20.1903C1.4538 20.1896 1.40429 20.175 1.36145 20.1479C1.62997 20.6532 2.03862 21.0703 2.53836 21.3491C3.0381 21.6279 3.6077 21.7565 4.17875 21.7196H18.2863C18.6292 21.718 18.9625 21.6061 19.2369 21.4004C19.5114 21.1948 19.7123 20.9064 19.8101 20.5777L22.9237 10.4914C23.0013 10.2459 23.0201 9.98557 22.9783 9.73152C22.9366 9.47747 22.8356 9.23685 22.6835 9.02913C22.5315 8.8214 22.3326 8.65246 22.103 8.53595C21.8734 8.41945 21.6196 8.35869 21.3622 8.35858Z" fill="#FCD53F" style="fill:#FCD53F;fill:color(display-p3 0.9882 0.8353 0.2471);fill-opacity:1;"/>
</svg>
