<svg width="24" height="24" viewBox="0 0 24 24" fill="none" xmlns="http://www.w3.org/2000/svg">
<path d="M17.3756 22.681L4.67798 15.5339L3.27771 12.1463L18.5832 3.10815L20.9999 5.46592V20.6387C20.9999 22.4534 18.9867 23.5878 17.3756 22.681Z" fill="#FCD53F" style="fill:#FCD53F;fill:color(display-p3 0.9882 0.8353 0.2471);fill-opacity:1;"/>
<path d="M21 5.8749C14.0386 6.15327 8.02661 10.023 4.85872 15.6356L2.18512 14.1307C1.015 13.4721 0.616978 11.9958 1.42127 10.9369C6.80905 3.84352 14.6042 1.68343 18.5354 1.03023C19.8786 0.807054 21 1.84915 21 3.17846V5.8749Z" fill="#F3AD61" style="fill:#F3AD61;fill:color(display-p3 0.9529 0.6784 0.3804);fill-opacity:1;"/>
<path d="M19.3888 10.9673C19.3888 12.4865 18.1265 13.718 16.5694 13.718C15.0122 13.718 13.7499 12.4865 13.7499 10.9673C13.7499 9.44809 15.0122 8.21655 16.5694 8.21655C18.1265 8.21655 19.3888 9.44809 19.3888 10.9673Z" fill="#F8312F" style="fill:#F8312F;fill:color(display-p3 0.9725 0.1922 0.1843);fill-opacity:1;"/>
<path d="M12.9444 15.6828C12.9444 16.7679 12.0427 17.6476 10.9305 17.6476C9.81827 17.6476 8.91663 16.7679 8.91663 15.6828C8.91663 14.5977 9.81827 13.718 10.9305 13.718C12.0427 13.718 12.9444 14.5977 12.9444 15.6828Z" fill="#F8312F" style="fill:#F8312F;fill:color(display-p3 0.9725 0.1922 0.1843);fill-opacity:1;"/>
<path d="M16.9721 19.2195C17.8619 19.2195 18.5832 18.5157 18.5832 17.6476C18.5832 16.7795 17.8619 16.0758 16.9721 16.0758C16.0823 16.0758 15.361 16.7795 15.361 17.6476C15.361 18.5157 16.0823 19.2195 16.9721 19.2195Z" fill="#F8312F" style="fill:#F8312F;fill:color(display-p3 0.9725 0.1922 0.1843);fill-opacity:1;"/>
</svg>
