<svg width="24" height="24" viewBox="0 0 24 24" fill="none" xmlns="http://www.w3.org/2000/svg">
<path fill-rule="evenodd" clip-rule="evenodd" d="M18.5 9C20.433 9 22 7.433 22 5.5C22 3.567 20.433 2 18.5 2C16.567 2 15 3.567 15 5.5C15 5.70663 15.0179 5.90907 15.0522 6.10587L8.05281 9.60559C7.41429 8.92509 6.50679 8.5 5.5 8.5C3.567 8.5 2 10.067 2 12C2 13.933 3.567 15.5 5.5 15.5C6.50678 15.5 7.41427 15.0749 8.05279 14.3944L15.0522 17.8942C15.0179 18.091 15 18.2934 15 18.5C15 20.433 16.567 22 18.5 22C20.433 22 22 20.433 22 18.5C22 16.567 20.433 15 18.5 15C17.4932 15 16.5857 15.4251 15.9472 16.1056L8.94775 12.6059C8.9821 12.4091 9 12.2066 9 12C9 11.7934 8.9821 11.591 8.94776 11.3942L15.9472 7.89445C16.5857 8.57492 17.4932 9 18.5 9Z" fill="#FFFFFF" style="fill:#FFFFFF;fill-opacity:1;"/>
</svg>
