<svg width="24" height="24" viewBox="0 0 24 24" fill="none" xmlns="http://www.w3.org/2000/svg">
<path fill-rule="evenodd" clip-rule="evenodd" d="M21.1303 14.1469C22.2899 12.9268 22.2899 11.0732 21.1303 9.8531C19.1745 7.79535 15.8155 5.00003 12 5.00003C8.18448 5.00003 4.82549 7.79535 2.86971 9.8531C1.7101 11.0732 1.7101 12.9268 2.86971 14.1469C4.82549 16.2046 8.18448 18.9999 12 18.9999C15.8155 18.9999 19.1745 16.2046 21.1303 14.1469ZM12 15C13.6569 15 15 13.6568 15 12C15 10.3431 13.6569 9.00001 12 9.00001C10.3431 9.00001 9 10.3431 9 12C9 13.6568 10.3431 15 12 15Z" fill="#1C1D20" style="fill:#1C1D20;fill:color(display-p3 0.1098 0.1137 0.1255);fill-opacity:1;"/>
</svg>
