<svg width="24" height="24" viewBox="0 0 24 24" fill="none" xmlns="http://www.w3.org/2000/svg">
<path fill-rule="evenodd" clip-rule="evenodd" d="M11.9997 6C13.1043 6 13.9997 5.10457 13.9997 4C13.9997 2.89543 13.1043 2 11.9997 2C10.8951 2 9.99972 2.89543 9.99972 4C9.99972 5.10457 10.8951 6 11.9997 6ZM11.9997 22C13.1043 22 13.9997 21.1046 13.9997 20C13.9997 18.8954 13.1043 18 11.9997 18C10.8951 18 9.99972 18.8954 9.99972 20C9.99972 21.1046 10.8951 22 11.9997 22ZM19.9278 9.73217C18.9712 10.2845 17.7481 9.9567 17.1958 9.00012C16.6435 8.04353 16.9712 6.82035 17.9278 6.26807C18.8844 5.71578 20.1076 6.04353 20.6599 7.00012C21.2122 7.9567 20.8844 9.17988 19.9278 9.73217ZM3.33957 17.0001C3.89186 17.9567 5.11504 18.2845 6.07162 17.7322C7.02821 17.1799 7.35596 15.9567 6.80367 15.0001C6.25139 14.0435 5.02821 13.7158 4.07162 14.2681C3.11504 14.8204 2.78729 16.0435 3.33957 17.0001ZM17.9278 17.7319C16.9712 17.1796 16.6435 15.9565 17.1958 14.9999C17.7481 14.0433 18.9712 13.7155 19.9278 14.2678C20.8844 14.8201 21.2122 16.0433 20.6599 16.9999C20.1076 17.9565 18.8844 18.2842 17.9278 17.7319ZM3.33957 7.00012C2.78729 7.9567 3.11504 9.17988 4.07162 9.73217C5.02821 10.2845 6.25139 9.9567 6.80367 9.00012C7.35596 8.04353 7.02821 6.82035 6.07162 6.26807C5.11504 5.71578 3.89186 6.04353 3.33957 7.00012Z" fill="#1C1D20" style="fill:#1C1D20;fill:color(display-p3 0.1098 0.1137 0.1255);fill-opacity:1;"/>
</svg>
