<svg width="24" height="24" viewBox="0 0 24 24" fill="none" xmlns="http://www.w3.org/2000/svg">
<path d="M11.5732 1.11203C11.8431 0.962655 12.172 0.962655 12.4335 1.11203L21.6441 6.33242C21.8634 6.45821 21.9984 6.68621 21.9984 6.92207L12.0033 13.1861L1.99988 7.00063V6.92207C1.99988 6.68621 2.13483 6.45821 2.35413 6.34028L11.5732 1.11203Z" fill="#F3C07B" style="fill:#F3C07B;fill:color(display-p3 0.9529 0.7529 0.4824);fill-opacity:1;"/>
<path d="M11.9998 12.2005L21.5815 6.77571C21.6235 6.75235 21.6715 6.73981 21.7204 6.73933C21.7693 6.73886 21.8175 6.75048 21.86 6.77302C21.9025 6.79555 21.9379 6.82818 21.9624 6.8676C21.987 6.90702 22 6.95181 21.9999 6.9974V16.6992C22 16.9328 21.9356 17.1625 21.813 17.3663C21.6904 17.5701 21.5137 17.7409 21.2998 17.8627L12.3254 22.9416C12.3025 22.9533 12.2777 22.9613 12.252 22.9652C12.2293 22.9715 12.2056 22.9744 12.1819 22.9738C12.0862 22.9989 11.9861 23.0061 11.8873 22.9949C11.7886 22.9837 11.6932 22.9543 11.6067 22.9086H11.6118L9.59082 14.3654L11.9998 12.2005Z" fill="#FFCE7C" style="fill:#FFCE7C;fill:color(display-p3 1.0000 0.8078 0.4875);fill-opacity:1;"/>
<path d="M12.0033 22.7168V12.2053L2.43004 6.78048C2.23605 6.67042 1.99988 6.79621 1.99988 7.00062V16.7024C1.99988 17.1819 2.26979 17.6222 2.69995 17.8659L11.6154 22.9134C11.784 23.0156 12.0033 22.8976 12.0033 22.7168Z" fill="#E19747" style="fill:#E19747;fill:color(display-p3 0.8833 0.5939 0.2797);fill-opacity:1;"/>
<path d="M8.54476 12.4412V10.2476V8.85616L5.7782 8.68311V11.1675C5.7782 11.2461 5.82037 11.3247 5.89628 11.3719L8.15676 12.6534C8.32546 12.7399 8.54476 12.6298 8.54476 12.4412Z" fill="#8C5543" style="fill:#8C5543;fill:color(display-p3 0.5490 0.3333 0.2627);fill-opacity:1;"/>
<path d="M15.7817 3.01465L5.7782 8.68317L8.54476 10.2556L18.5482 4.59491L15.7817 3.01465Z" fill="#A56953" style="fill:#A56953;fill:color(display-p3 0.6471 0.4118 0.3255);fill-opacity:1;"/>
</svg>
