<svg width="24" height="24" viewBox="0 0 24 24" fill="none" xmlns="http://www.w3.org/2000/svg">
<path fill-rule="evenodd" clip-rule="evenodd" d="M10.2306 2.5552C10.9556 1.09521 13.0441 1.0952 13.7691 2.5552L16.0979 7.24502L21.3076 7.99742C22.9201 8.2303 23.5815 10.2127 22.4004 11.3569L18.6343 15.0056L19.5231 20.1562C19.8028 21.7771 18.0972 22.9837 16.661 22.2332L11.9999 19.7977L7.33871 22.2332C5.9025 22.9837 4.19693 21.7771 4.47664 20.1562L5.36544 15.0056L1.59929 11.3569C0.41822 10.2127 1.07958 8.23031 2.69209 7.99742L7.90184 7.24502L10.2306 2.5552ZM11.9999 3.48911L9.68645 8.14801C9.39757 8.72977 8.84085 9.13015 8.20021 9.22267L3.0399 9.96794L6.76979 13.5815C7.23596 14.0332 7.4502 14.6858 7.33958 15.3268L6.45774 20.437L11.0834 18.02C11.6573 17.7201 12.3424 17.7201 12.9163 18.02L17.542 20.437L16.6601 15.3268C16.5495 14.6858 16.7637 14.0332 17.2299 13.5815L20.9598 9.96794L15.7995 9.22267C15.1589 9.13015 14.6021 8.72977 14.3133 8.14801L11.9999 3.48911Z" fill="#1C1D20" style="fill:#1C1D20;fill:color(display-p3 0.1098 0.1137 0.1255);fill-opacity:1;"/>
</svg>
