<svg width="24" height="24" viewBox="0 0 24 24" fill="none" xmlns="http://www.w3.org/2000/svg">
<path d="M18.3538 5.64814C17.4099 4.69669 16.2641 3.96921 15.001 3.51941C13.738 3.06961 12.3899 2.90898 11.0563 3.04939C6.92337 3.46564 3.5224 6.81814 3.06068 10.9469C2.4413 16.4031 6.66436 21.0044 11.991 21.0044C13.6917 21.0044 15.3574 20.5224 16.7946 19.6143C18.2319 18.7062 19.3818 17.4093 20.1106 15.8744C20.471 15.1206 19.9304 14.2544 19.097 14.2544C18.6804 14.2544 18.2862 14.4794 18.106 14.8506C17.4522 16.2558 16.3339 17.3931 14.9392 18.0713C13.5445 18.7495 11.9586 18.9271 10.4482 18.5744C7.94817 18.0231 5.93236 15.9869 5.40307 13.4894C5.18058 12.5019 5.18315 11.4771 5.41061 10.4908C5.63806 9.50449 6.08457 8.58186 6.71712 7.79118C7.34966 7.0005 8.15205 6.36199 9.06494 5.92289C9.97782 5.48378 10.9778 5.25532 11.991 5.25439C13.8605 5.25439 15.5272 6.03064 16.7434 7.25689L15.5002 8.50012C14.7908 9.20887 15.2863 10.4239 16.2885 10.4239L20.0002 10.5001C20.6196 10.5001 21.0002 10.0001 21.0002 9.38137V5.71564C21.0002 4.71439 19.784 4.20814 19.0745 4.91689L18.3538 5.64814Z" fill="#fff" style="fill:#fff;fill-opacity:1;"/>
</svg>
