<svg width="24" height="24" viewBox="0 0 24 24" fill="none" xmlns="http://www.w3.org/2000/svg">
<path fill-rule="evenodd" clip-rule="evenodd" d="M8.89751 4.10256C8.89751 2.38907 10.2865 1 12 1C13.7135 1 15.1025 2.38907 15.1025 4.10256V4.28945C17.7932 4.61691 20.3069 5.36387 22.5243 6.44449C22.9444 6.64921 23.119 7.15571 22.9143 7.57581C22.7096 7.9959 22.2031 8.17049 21.783 7.96577C18.972 6.59587 15.615 5.79487 12 5.79487C8.385 5.79487 5.02803 6.59587 2.217 7.96577C1.79692 8.17049 1.29042 7.9959 1.0857 7.57581C0.880987 7.15571 1.05558 6.64921 1.47566 6.44449C3.69309 5.36387 6.20681 4.61691 8.89751 4.28945V4.10256ZM19.069 19.3706C18.9003 21.7322 16.9353 23.5619 14.5677 23.5619H9.4333C7.06574 23.5619 5.10071 21.7322 4.93203 19.3706L4.15559 8.50019C6.54432 7.66723 9.20118 7.20292 12.0005 7.20292C14.7999 7.20292 17.4567 7.66723 19.8454 8.50019L19.069 19.3706ZM10.5903 11.1516C10.5903 10.6843 10.2115 10.3055 9.74415 10.3055C9.27684 10.3055 8.89801 10.6843 8.89801 11.1516V17.9209C8.89801 18.3882 9.27684 18.767 9.74415 18.767C10.2115 18.767 10.5903 18.3882 10.5903 17.9209V11.1516ZM14.2569 10.3055C14.7242 10.3055 15.103 10.6843 15.103 11.1516V17.9209C15.103 18.3882 14.7242 18.767 14.2569 18.767C13.7896 18.767 13.4107 18.3882 13.4107 17.9209V11.1516C13.4107 10.6843 13.7896 10.3055 14.2569 10.3055Z" fill="#1C1D20" style="fill:#1C1D20;fill:color(display-p3 0.1098 0.1137 0.1255);fill-opacity:1;"/>
</svg>
