<svg width="24" height="24" viewBox="0 0 24 24" fill="none" xmlns="http://www.w3.org/2000/svg">
<path fill-rule="evenodd" clip-rule="evenodd" d="M5.77778 5C5.5715 5 5.37367 5.08194 5.22781 5.22781C5.08194 5.37367 5 5.5715 5 5.77778V18.2222C5 18.4285 5.08194 18.6263 5.22781 18.7722C5.37367 18.9181 5.5715 19 5.77778 19H18.2222C18.4285 19 18.6263 18.9181 18.7722 18.7722C18.9181 18.6263 19 18.4285 19 18.2222V13.7778C19 13.2255 19.4477 12.7778 20 12.7778C20.5523 12.7778 21 13.2255 21 13.7778V18.2222C21 18.9589 20.7073 19.6655 20.1864 20.1864C19.6655 20.7073 18.9589 21 18.2222 21H5.77778C5.04106 21 4.33453 20.7073 3.81359 20.1864C3.29266 19.6655 3 18.9589 3 18.2222V5.77778C3 5.04107 3.29266 4.33453 3.81359 3.81359C4.33453 3.29266 5.04107 3 5.77778 3H10.2222C10.7745 3 11.2222 3.44772 11.2222 4C11.2222 4.55228 10.7745 5 10.2222 5H5.77778ZM14.5556 4C14.5556 3.44772 15.0033 3 15.5556 3H20C20.5523 3 21 3.44772 21 4V8.44444C21 8.99673 20.5523 9.44444 20 9.44444C19.4477 9.44444 19 8.99673 19 8.44444V6.41421L14.0404 11.3738C13.6499 11.7643 13.0168 11.7643 12.6262 11.3738C12.2357 10.9832 12.2357 10.3501 12.6262 9.95956L17.5858 5H15.5556C15.0033 5 14.5556 4.55228 14.5556 4Z" fill="#1C1D20" style="fill:#1C1D20;fill:color(display-p3 0.1098 0.1137 0.1255);fill-opacity:1;"/>
</svg>
