<svg width="30" height="30" viewBox="0 0 30 30" fill="none" xmlns="http://www.w3.org/2000/svg">
<path fill-rule="evenodd" clip-rule="evenodd" d="M2.5 7.5C2.5 4.73858 4.73858 2.5 7.5 2.5H22.5C25.2614 2.5 27.5 4.73858 27.5 7.5V15.5613L24.6918 13.7232C22.5237 12.3041 19.6858 12.4549 17.6802 14.0958L11.1325 19.453C9.76031 20.5757 7.81853 20.6789 6.3351 19.7079L2.5 17.1977V7.5ZM23.665 15.292L27.5 17.8022V22.5C27.5 25.2614 25.2614 27.5 22.5 27.5H7.5C4.73858 27.5 2.5 25.2614 2.5 22.5V19.4386L5.30824 21.2767C7.47633 22.6958 10.3143 22.545 12.3198 20.9042L18.8676 15.5469C20.2398 14.4242 22.1815 14.321 23.665 15.292ZM10.625 13.75C12.3509 13.75 13.75 12.3509 13.75 10.625C13.75 8.89911 12.3509 7.5 10.625 7.5C8.89911 7.5 7.5 8.89911 7.5 10.625C7.5 12.3509 8.89911 13.75 10.625 13.75Z" fill="#1C1D20" style="fill:#1C1D20;fill:color(display-p3 0.1098 0.1137 0.1255);fill-opacity:1;"/>
</svg>
