<svg width="24" height="24" viewBox="0 0 24 24" fill="none" xmlns="http://www.w3.org/2000/svg">
<path d="M12 20.5556C17.5228 20.5556 22 16.1779 22 10.7778C22 5.37766 17.5228 1 12 1C6.47714 1 2 5.37766 2 10.7778C2 16.1779 6.47714 20.5556 12 20.5556Z" fill="#533566" style="fill:#533566;fill:color(display-p3 0.3255 0.2078 0.4000);fill-opacity:1;"/>
<path d="M18.5774 18.1111H5.2441L4.47621 21.5174C4.19893 22.2478 4.8375 23 5.73654 23H18.0878C18.9869 23 19.617 22.2478 19.3482 21.5174L18.5774 18.1111Z" fill="#7F65A9" style="fill:#7F65A9;fill:color(display-p3 0.4965 0.3947 0.6625);fill-opacity:1;"/>
<path d="M10.4149 3.65996C10.3149 3.61891 10.2399 3.53681 10.1983 3.44651L9.88161 2.71584C9.82327 2.6009 9.6566 2.6009 9.59826 2.71584L9.28161 3.44651C9.23994 3.54502 9.16493 3.61891 9.06493 3.65996L8.66493 3.84057C8.54827 3.89804 8.54827 4.06223 8.66493 4.1197L9.06493 4.30032C9.16493 4.34137 9.23994 4.42346 9.28161 4.51377L9.59826 5.24444C9.6566 5.35937 9.82327 5.35937 9.88161 5.24444L10.1983 4.51377C10.2399 4.41525 10.3149 4.34137 10.4149 4.30032L10.8149 4.1197C10.9316 4.06223 10.9316 3.89804 10.8149 3.84057L10.4149 3.65996Z" fill="#FCD53F" style="fill:#FCD53F;fill:color(display-p3 0.9882 0.8353 0.2471);fill-opacity:1;"/>
<path d="M18.6774 7.35844C18.5441 7.30097 18.4358 7.18603 18.3774 7.05468L17.9274 6.01204C17.8441 5.84785 17.6024 5.84785 17.5191 6.01204L17.0691 7.05468C17.0108 7.18603 16.9024 7.30097 16.7691 7.35844L16.2024 7.61294C16.0358 7.69503 16.0358 7.93311 16.2024 8.01521L16.7691 8.26972C16.9024 8.32719 17.0108 8.44212 17.0691 8.57347L17.5191 9.61611C17.6024 9.7803 17.8441 9.7803 17.9274 9.61611L18.3774 8.57347C18.4358 8.44212 18.5441 8.32719 18.6774 8.26972L19.2441 8.01521C19.4108 7.93311 19.4108 7.69503 19.2441 7.61294L18.6774 7.35844Z" fill="#FCD53F" style="fill:#FCD53F;fill:color(display-p3 0.9882 0.8353 0.2471);fill-opacity:1;"/>
<path d="M9.06587 9.98767C9.18148 10.2744 9.39729 10.5054 9.67474 10.6328L10.8231 11.1665C11.1622 11.3417 11.1622 11.8435 10.8231 12.0187L9.67474 12.5524C9.40499 12.6798 9.18148 12.9108 9.06587 13.1975L8.15644 15.4038C7.98688 15.7543 7.50132 15.7543 7.33177 15.4038L6.42233 13.1975C6.30672 12.9108 6.09092 12.6798 5.81346 12.5524L4.6651 12.0187C4.32599 11.8435 4.32599 11.3417 4.6651 11.1665L5.81346 10.6328C6.08321 10.5054 6.30672 10.2744 6.42233 9.98767L7.33177 7.78137C7.50132 7.43091 7.98688 7.43091 8.15644 7.78137L9.06587 9.98767Z" fill="#FCD53F" style="fill:#FCD53F;fill:color(display-p3 0.9882 0.8353 0.2471);fill-opacity:1;"/>
</svg>
