<svg width="24" height="24" viewBox="0 0 24 24" fill="none" xmlns="http://www.w3.org/2000/svg">
<path d="M20.1164 23H3.88357C2.28857 23 1 21.7114 1 20.1164V3.88357C1 2.28857 2.28857 1 3.88357 1H14.6054L19.0455 2.60099L21.4371 4.30653L23 10.1378V20.1164C23 21.7114 21.7114 23 20.1164 23Z" fill="#3C2B47" style="fill:#3C2B47;fill:color(display-p3 0.2363 0.1687 0.2792);fill-opacity:1;"/>
<path fill-rule="evenodd" clip-rule="evenodd" d="M3.88357 21H20.1164C20.6069 21 21 20.6068 21 20.1164V10.4011L19.6912 5.51792L18.1083 4.38909L14.2559 3H3.88357C3.39314 3 3 3.39314 3 3.88357V20.1164C3 20.6069 3.39314 21 3.88357 21ZM14.6054 1H3.88357C2.28857 1 1 2.28857 1 3.88357V20.1164C1 21.7114 2.28857 23 3.88357 23H20.1164C21.7114 23 23 21.7114 23 20.1164V10.1378L21.4371 4.30653L19.0455 2.60099L14.6054 1Z" fill="#7F65A9" style="fill:#7F65A9;fill:color(display-p3 0.4965 0.3947 0.6625);fill-opacity:1;"/>
<path d="M23.0001 3.88357C23.0001 2.28857 21.7115 1 20.1165 1H14.5851L8.46436 6.89286L16.7144 16.3214L23.0001 10.1457V3.88357Z" fill="#7F65A9" style="fill:#7F65A9;fill:color(display-p3 0.4965 0.3947 0.6625);fill-opacity:1;"/>
<path d="M9.8865 6.89287L11.5208 8.36215C11.8272 8.63715 12.2436 8.73929 12.6444 8.63715L14.7815 8.09501C15.7479 7.85144 16.5886 8.7943 16.2272 9.7293L15.3708 11.945C15.2294 12.3064 15.2686 12.715 15.4808 13.045L16.7458 15.0486C17.2958 15.9129 16.5965 17.0286 15.5829 16.9186L13.5008 16.6986C13.0843 16.6514 12.6679 16.8322 12.4086 17.1622L11.1201 18.8122C10.4915 19.6214 9.21079 19.3464 8.96721 18.3486L8.4015 16.0464C8.30721 15.6693 8.04007 15.355 7.6865 15.2057L5.49435 14.2864C4.57506 13.9014 4.47292 12.6364 5.32149 12.11L7.19936 10.9471C7.54507 10.735 7.76506 10.3579 7.78078 9.94929L7.85935 7.75715C7.88293 6.72001 9.10864 6.20144 9.8865 6.89287Z" fill="#FCD53F" style="fill:#FCD53F;fill:color(display-p3 0.9882 0.8353 0.2471);fill-opacity:1;"/>
</svg>
