<svg width="124" height="46" viewBox="0 0 124 46" fill="none" xmlns="http://www.w3.org/2000/svg">
<path fill-rule="evenodd" clip-rule="evenodd" d="M35.1277 31.6945C35.29 29.3723 35.0874 20.6369 32.6961 15.1053C30.7579 10.1646 25.9601 6.66776 20.3485 6.66776C13.0224 6.66776 7.0835 12.6276 7.0835 19.9795C7.0835 22.2257 7.63788 24.3419 8.61682 26.198C9.40877 27.971 10.7906 29.7331 12.1982 31.528C13.3361 32.9791 14.4909 34.4517 15.3644 35.9689C15.3908 36.0146 15.4183 36.0594 15.447 36.1032C17.1958 39.4351 20.6804 41.7067 24.6937 41.7067C30.3053 41.7067 34.8833 37.2655 35.1277 31.6945Z" fill="#FFB627" style="fill:#FFB627;fill:color(display-p3 1.0000 0.7152 0.1542);fill-opacity:1;"/>
<path opacity="0.9" d="M14.9507 5.62414C16.0999 12.65 28.3681 17.4548 34.391 14.8203C34.391 6.97376 21.6199 1.84 14.9507 5.62414Z" fill="#53C241" style="fill:#53C241;fill:color(display-p3 0.3255 0.7608 0.2549);fill-opacity:1;"/>
<path opacity="0.9" fill-rule="evenodd" clip-rule="evenodd" d="M8.94313 29.6759C8.50554 29.176 8.0075 28.534 7.53233 27.7958C3.36387 30.4176 1.03096 32.9518 1.62472 34.6601C2.70987 37.7823 13.1595 36.9636 24.9647 32.8315C36.7699 28.6995 45.4602 22.8188 44.375 19.6966C43.7774 17.9771 40.3391 17.4529 35.3984 18.0193C35.5333 18.8753 35.6458 19.8399 35.7162 20.5873C37.0174 20.6208 37.8415 20.8901 38.025 21.418C38.6243 23.1421 32.164 26.971 23.5956 29.9701C15.0272 32.9692 7.59542 34.0028 6.9962 32.2788C6.77634 31.6462 7.50684 30.7303 8.94313 29.6759Z" fill="#FF6711" style="fill:#FF6711;fill:color(display-p3 1.0000 0.4027 0.0667);fill-opacity:1;"/>
<path d="M64.4512 10.4696H62.4968C61.825 10.4696 61.7232 10.9303 61.5807 11.1816L58.7713 16.333L55.9822 11.1816C55.8194 10.9303 55.7379 10.4696 55.0458 10.4696H53.0303C52.5621 10.4696 52.4399 10.7 52.4399 11.0769V23.6623C52.4399 24.144 52.6639 24.2696 53.0303 24.2696H55.0458C55.4122 24.2696 55.6361 24.144 55.6361 23.6623V16.5634L57.6923 20.228C57.7941 20.3956 57.957 20.6678 58.2623 20.6678H59.2802C59.5856 20.6678 59.7688 20.3956 59.8706 20.228L61.9064 16.5634V23.6623C61.9064 24.144 62.1303 24.2696 62.4968 24.2696H64.4512C64.8176 24.2696 65.0415 24.144 65.0415 23.6623V11.0769C65.0415 10.7 64.9194 10.4696 64.4512 10.4696Z" fill="#291B12" style="fill:#291B12;fill:color(display-p3 0.1608 0.1059 0.0706);fill-opacity:1;"/>
<path d="M79.569 23.6833L75.0699 11.1397C74.8867 10.7 74.6831 10.4905 74.2352 10.4905H72.2809C71.833 10.4905 71.6091 10.7 71.4462 11.1397L66.9267 23.6833C66.8249 23.9346 66.8249 24.2696 67.2728 24.2696H69.4104C69.8583 24.2696 70.0211 24.144 70.184 23.6414L70.754 21.9871H75.7417L76.3118 23.6414C76.4746 24.144 76.6375 24.2696 77.0854 24.2696H79.223C79.6708 24.2696 79.6708 23.9346 79.569 23.6833ZM71.7312 19.0553L73.2581 14.4274L74.7849 19.0553H71.7312Z" fill="#291B12" style="fill:#291B12;fill:color(display-p3 0.1608 0.1059 0.0706);fill-opacity:1;"/>
<path d="M91.6673 10.4905H89.7129C89.3464 10.4905 89.1225 10.6162 89.1225 11.0978V18.3643L84.8066 11.2025C84.542 10.7837 84.3994 10.4905 83.8905 10.4905H81.9768C81.5086 10.4905 81.3865 10.7209 81.3865 11.0978V23.6623C81.3865 24.144 81.6104 24.2696 81.9768 24.2696H83.9923C84.3587 24.2696 84.5827 24.144 84.5827 23.6623V16.3749L88.8986 23.5576C89.1632 23.9764 89.3057 24.2696 89.8147 24.2696H91.6673C92.1355 24.2696 92.2576 24.0393 92.2576 23.6623V11.0978C92.2576 10.6162 92.0337 10.4905 91.6673 10.4905Z" fill="#291B12" style="fill:#291B12;fill:color(display-p3 0.1608 0.1059 0.0706);fill-opacity:1;"/>
<path d="M96.0256 19.9283H97.0247C97.4936 19.9283 97.5344 19.8654 97.5956 19.3201C98.4723 11.0359 98.4927 10.9729 98.4927 10.91C98.4927 10.5325 98.3092 10.4696 97.881 10.4696H95.1489C94.7411 10.4696 94.5576 10.5535 94.5576 10.91C94.5576 10.9729 94.578 11.0359 95.4343 19.3201C95.4955 19.8444 95.5363 19.9283 96.0256 19.9283ZM97.6567 20.7252H95.3936C95.0266 20.7252 94.8023 20.8511 94.8023 21.3334V23.6614C94.8023 24.1438 95.0266 24.2696 95.3936 24.2696H97.6567C98.0237 24.2696 98.248 24.1438 98.248 23.6614V21.3334C98.248 20.8511 98.0237 20.7252 97.6567 20.7252Z" fill="#FF6711" style="fill:#FF6711;fill:color(display-p3 1.0000 0.4027 0.0667);fill-opacity:1;"/>
<path d="M110.718 16.6074H106.447C105.999 16.6074 105.882 16.828 105.882 17.1891V18.7536C105.882 19.1147 105.999 19.3353 106.447 19.3353H108.202C108.202 20.8798 107.305 21.4815 106.038 21.4815C104.751 21.4815 103.893 20.7394 103.893 19.4557V15.424C103.893 14.1402 104.751 13.2577 106.038 13.2577C107.344 13.2577 108.046 13.8594 108.261 14.4812C108.358 14.762 108.28 15.1632 108.826 15.1632H110.718C111.166 15.1632 111.283 15.083 111.283 14.6016C111.283 11.9138 108.475 10.4696 106.038 10.4696C103.737 10.4696 100.792 11.8135 100.792 14.9827V19.917C100.792 23.0661 103.737 24.2696 106.038 24.2696C108.261 24.2696 111.108 22.9859 111.283 20.0975V17.1891C111.283 16.828 111.166 16.6074 110.718 16.6074Z" fill="#291B12" style="fill:#291B12;fill:color(display-p3 0.1608 0.1059 0.0706);fill-opacity:1;"/>
<path d="M123.87 15.0027C123.87 11.8336 120.945 10.4696 118.625 10.4696C116.304 10.4696 113.418 11.8336 113.418 15.0027V19.7365C113.418 22.9057 116.304 24.2696 118.625 24.2696C120.945 24.2696 123.87 22.9057 123.87 19.7365V15.0027ZM120.809 19.4557C120.809 20.7394 119.912 21.4815 118.625 21.4815C117.357 21.4815 116.46 20.7394 116.46 19.4557V15.2836C116.46 13.9998 117.357 13.2577 118.625 13.2577C119.912 13.2577 120.809 13.9998 120.809 15.2836V19.4557Z" fill="#291B12" style="fill:#291B12;fill:color(display-p3 0.1608 0.1059 0.0706);fill-opacity:1;"/>
<g opacity="0.8">
<path d="M57.4539 33.4696C57.4539 32.8624 57.3159 32.3748 56.9663 32.0344C56.6903 31.7584 56.2671 31.5744 55.6783 31.4916L54.8871 31.3812C54.6571 31.3536 54.5191 31.2708 54.4363 31.188C54.3351 31.0868 54.3075 30.9672 54.3075 30.8844C54.3075 30.5992 54.5375 30.2772 55.0987 30.2772C55.3839 30.2772 55.9267 30.2496 56.3407 30.6636L57.3527 29.6516C56.7915 29.0904 56.0831 28.8696 55.1447 28.8696C53.6543 28.8696 52.7527 29.7436 52.7527 30.9396C52.7527 31.5008 52.8999 31.9424 53.2035 32.2552C53.4979 32.5588 53.9395 32.752 54.5191 32.8348L55.3103 32.9452C55.5219 32.9728 55.6599 33.0372 55.7427 33.12C55.8347 33.2212 55.8715 33.35 55.8715 33.5064C55.8715 33.8836 55.5679 34.0952 54.9331 34.0952C54.4087 34.0952 53.8107 33.9756 53.4703 33.6352L52.4399 34.6656C53.1023 35.3464 53.9211 35.5304 54.9239 35.5304C56.3039 35.5304 57.4539 34.8036 57.4539 33.4696Z" fill="#291B12" style="fill:#291B12;fill:color(display-p3 0.1608 0.1059 0.0706);fill-opacity:1;"/>
<path d="M63.5055 30.36V28.9248H58.6755V30.36H60.2855V35.4752H61.8955V30.36H63.5055Z" fill="#291B12" style="fill:#291B12;fill:color(display-p3 0.1608 0.1059 0.0706);fill-opacity:1;"/>
<path d="M69.8531 33.1752V28.9248H68.2431V33.1384C68.2431 33.7456 67.8935 34.0952 67.3599 34.0952C66.8263 34.0952 66.4951 33.7456 66.4951 33.1384V28.9248H64.8851V33.1752C64.8851 34.6104 65.9983 35.5304 67.3599 35.5304C68.7215 35.5304 69.8531 34.6104 69.8531 33.1752Z" fill="#291B12" style="fill:#291B12;fill:color(display-p3 0.1608 0.1059 0.0706);fill-opacity:1;"/>
<path d="M76.4969 32.2C76.4969 31.1696 76.5797 30.3324 75.8161 29.5688C75.3653 29.118 74.7305 28.9248 74.0497 28.9248H71.6209V35.4752H74.0497C74.7305 35.4752 75.3653 35.282 75.8161 34.8312C76.5797 34.0676 76.4969 33.2304 76.4969 32.2ZM74.8869 32.2C74.8869 33.3132 74.8409 33.488 74.7121 33.672C74.5649 33.8928 74.3441 34.04 73.9393 34.04H73.2309V30.36H73.9393C74.3441 30.36 74.5649 30.5072 74.7121 30.728C74.8409 30.912 74.8869 31.096 74.8869 32.2Z" fill="#291B12" style="fill:#291B12;fill:color(display-p3 0.1608 0.1059 0.0706);fill-opacity:1;"/>
<path d="M79.7755 35.4752V28.9248H78.1655V35.4752H79.7755Z" fill="#291B12" style="fill:#291B12;fill:color(display-p3 0.1608 0.1059 0.0706);fill-opacity:1;"/>
<path d="M86.4302 32.2C86.4302 31.2156 86.4578 30.2956 85.7678 29.6056C85.2894 29.1272 84.7374 28.8696 83.937 28.8696C83.1366 28.8696 82.5846 29.1272 82.1062 29.6056C81.4162 30.2956 81.4438 31.2156 81.4438 32.2C81.4438 33.1844 81.4162 34.1044 82.1062 34.7944C82.5846 35.2728 83.1366 35.5304 83.937 35.5304C84.7374 35.5304 85.2894 35.2728 85.7678 34.7944C86.4578 34.1044 86.4302 33.1844 86.4302 32.2ZM84.8202 32.2C84.8202 33.396 84.7282 33.6076 84.581 33.8008C84.4614 33.9572 84.2314 34.0952 83.937 34.0952C83.6426 34.0952 83.4126 33.9572 83.293 33.8008C83.1458 33.6076 83.0538 33.396 83.0538 32.2C83.0538 31.004 83.1458 30.7832 83.293 30.59C83.4126 30.4336 83.6426 30.3048 83.937 30.3048C84.2314 30.3048 84.4614 30.4336 84.581 30.59C84.7282 30.7832 84.8202 31.004 84.8202 32.2Z" fill="#291B12" style="fill:#291B12;fill:color(display-p3 0.1608 0.1059 0.0706);fill-opacity:1;"/>
</g>
</svg>
