<svg width="123" height="39" viewBox="0 0 123 39" fill="none" xmlns="http://www.w3.org/2000/svg">
<circle cx="19.304" cy="16.0374" r="13.6098" fill="#FFB627"/>
<path d="M14.1907 32.3848C12.157 28.865 8.63726 25.5799 7.20529 22.2532C15.0987 18.2181 26.2235 10.7096 30.242 8.16241C34.449 13.0651 34.6836 25.8928 34.449 28.2393C28.6289 33.2459 16.585 36.5288 14.1907 32.3848Z" fill="#FFB627"/>
<circle cx="23.7623" cy="27.5353" r="10.7158" fill="#FFB627"/>
<path opacity="0.8" d="M13.7662 1.36061C14.8613 7.0424 27.5325 13.4562 33.712 10.7627C33.712 2.74045 20.4147 -2.65654 13.7662 1.36061Z" fill="#41D629"/>
<path opacity="0.8" fill-rule="evenodd" clip-rule="evenodd" d="M7.60251 25.951C7.15355 25.4399 6.64255 24.7836 6.15503 24.0288C1.87824 26.7092 -0.515292 29.3002 0.0938968 31.0468C1.20726 34.2388 11.9286 33.4018 24.0406 29.1772C36.1527 24.9526 45.0689 18.9403 43.9555 15.7482C43.3423 13.9902 39.8147 13.4543 34.7454 14.0334C34.8838 14.9085 34.9993 15.8948 35.0715 16.6588C36.4066 16.6931 37.2522 16.9684 37.4404 17.5082C38.0552 19.2708 31.427 23.1855 22.6359 26.2517C13.8448 29.318 6.21979 30.3748 5.60499 28.6121C5.37941 27.9654 6.1289 27.0289 7.60251 25.951Z" fill="#FF3D00"/>
<path d="M64.5544 7.54566H62.6515C61.9974 7.54566 61.8983 7.98175 61.7595 8.21962L59.024 13.0959L56.3084 8.21962C56.1498 7.98175 56.0705 7.54566 55.3966 7.54566H53.4342C52.9782 7.54566 52.8593 7.76371 52.8593 8.12051V20.0337C52.8593 20.4896 53.0774 20.6085 53.4342 20.6085H55.3966C55.7534 20.6085 55.9714 20.4896 55.9714 20.0337V13.3139L57.9735 16.7828C58.0726 16.9414 58.2311 17.1991 58.5285 17.1991H59.5196C59.8169 17.1991 59.9953 16.9414 60.0944 16.7828L62.0767 13.3139V20.0337C62.0767 20.4896 62.2947 20.6085 62.6515 20.6085H64.5544C64.9112 20.6085 65.1293 20.4896 65.1293 20.0337V8.12051C65.1293 7.76371 65.0103 7.54566 64.5544 7.54566Z" fill="#693716"/>
<path d="M79.2745 20.0535L74.8937 8.17997C74.7153 7.76371 74.5171 7.56548 74.081 7.56548H72.1781C71.742 7.56548 71.524 7.76371 71.3654 8.17997L66.9649 20.0535C66.8657 20.2914 66.8657 20.6085 67.3018 20.6085H69.3832C69.8193 20.6085 69.9778 20.4896 70.1364 20.0139L70.6914 18.4479H75.5479L76.1029 20.0139C76.2615 20.4896 76.4201 20.6085 76.8561 20.6085H78.9375C79.3736 20.6085 79.3736 20.2914 79.2745 20.0535ZM71.6429 15.6728L73.1296 11.2921L74.6162 15.6728H71.6429Z" fill="#693716"/>
<path d="M91.0543 7.56548H89.1514C88.7946 7.56548 88.5765 7.68442 88.5765 8.14033V15.0186L84.3742 8.23944C84.1165 7.843 83.9778 7.56548 83.4822 7.56548H81.6189C81.163 7.56548 81.0441 7.78353 81.0441 8.14033V20.0337C81.0441 20.4896 81.2621 20.6085 81.6189 20.6085H83.5813C83.9381 20.6085 84.1562 20.4896 84.1562 20.0337V13.1355L88.3585 19.9346C88.6162 20.331 88.7549 20.6085 89.2505 20.6085H91.0543C91.5102 20.6085 91.6291 20.3905 91.6291 20.0337V8.14033C91.6291 7.68442 91.4111 7.56548 91.0543 7.56548Z" fill="#693716"/>
<path d="M109.63 13.3338H105.289C104.833 13.3338 104.714 13.5518 104.714 13.9086V15.4547C104.714 15.8115 104.833 16.0296 105.289 16.0296H107.073C107.073 17.5559 106.161 18.1506 104.873 18.1506C103.565 18.1506 102.692 17.4171 102.692 16.1485V12.1642C102.692 10.8956 103.565 10.0234 104.873 10.0234C106.201 10.0234 106.915 10.6181 107.133 11.2326C107.232 11.5101 107.152 11.9066 107.707 11.9066H109.63C110.086 11.9066 110.205 11.8273 110.205 11.3515C110.205 8.69535 107.351 7.26815 104.873 7.26815C102.534 7.26815 99.5407 8.59624 99.5407 11.7282V16.6044C99.5407 19.7165 102.534 20.9059 104.873 20.9059C107.133 20.9059 110.027 19.6372 110.205 16.7828V13.9086C110.205 13.5518 110.086 13.3338 109.63 13.3338Z" fill="#693716"/>
<path d="M123 11.748C123 8.61606 120.027 7.26815 117.668 7.26815C115.309 7.26815 112.375 8.61606 112.375 11.748V16.426C112.375 19.5579 115.309 20.9059 117.668 20.9059C120.027 20.9059 123 19.5579 123 16.426V11.748ZM119.888 16.1485C119.888 17.4171 118.976 18.1506 117.668 18.1506C116.379 18.1506 115.468 17.4171 115.468 16.1485V12.0255C115.468 10.7569 116.379 10.0234 117.668 10.0234C118.976 10.0234 119.888 10.7569 119.888 12.0255V16.1485Z" fill="#693716"/>
<path d="M95.1533 16.4282H96.1246C96.5805 16.4282 96.6202 16.3688 96.6796 15.8534C97.532 8.0236 97.5518 7.96413 97.5518 7.90466C97.5518 7.54786 97.3734 7.4884 96.9572 7.4884H94.301C93.9045 7.4884 93.7261 7.56768 93.7261 7.90466C93.7261 7.96413 93.746 8.0236 94.5785 15.8534C94.638 16.3489 94.6776 16.4282 95.1533 16.4282ZM96.7391 17.1815H94.5388C94.182 17.1815 93.964 17.3004 93.964 17.7563V19.9566C93.964 20.4125 94.182 20.5314 94.5388 20.5314H96.7391C97.0959 20.5314 97.314 20.4125 97.314 19.9566V17.7563C97.314 17.3004 97.0959 17.1815 96.7391 17.1815Z" fill="#FF3D00"/>
<g opacity="0.8">
<path d="M57.2642 29.3545C57.2642 28.7731 57.1321 28.3062 56.7973 27.9802C56.533 27.7159 56.1277 27.5397 55.5639 27.4604L54.8063 27.3547C54.586 27.3283 54.4539 27.249 54.3746 27.1697C54.2777 27.0728 54.2512 26.9583 54.2512 26.879C54.2512 26.6059 54.4715 26.2975 55.0089 26.2975C55.282 26.2975 55.8018 26.2711 56.1982 26.6675L57.1673 25.6984C56.6299 25.161 55.9515 24.9496 55.0529 24.9496C53.6257 24.9496 52.7624 25.7865 52.7624 26.9318C52.7624 27.4692 52.9033 27.8921 53.1941 28.1916C53.476 28.4824 53.8988 28.6674 54.4539 28.7467L55.2115 28.8524C55.4141 28.8788 55.5463 28.9405 55.6256 29.0198C55.7137 29.1167 55.7489 29.24 55.7489 29.3898C55.7489 29.751 55.4582 29.9536 54.8503 29.9536C54.3481 29.9536 53.7755 29.8391 53.4495 29.5131L52.4628 30.4998C53.0971 31.1518 53.8812 31.328 54.8415 31.328C56.163 31.328 57.2642 30.632 57.2642 29.3545Z" fill="#693716"/>
<path d="M63.0591 26.3768V25.0025H58.4339V26.3768H59.9757V31.2751H61.5174V26.3768H63.0591Z" fill="#693716"/>
<path d="M69.1376 29.0726V25.0025H67.5959V29.0374C67.5959 29.6188 67.2611 29.9536 66.7501 29.9536C66.2392 29.9536 65.922 29.6188 65.922 29.0374V25.0025H64.3803V29.0726C64.3803 30.447 65.4463 31.328 66.7501 31.328C68.054 31.328 69.1376 30.447 69.1376 29.0726Z" fill="#693716"/>
<path d="M75.4997 28.1388C75.4997 27.1521 75.579 26.3504 74.8478 25.6192C74.4161 25.1875 73.8082 25.0025 73.1563 25.0025H70.8305V31.2751H73.1563C73.8082 31.2751 74.4161 31.0901 74.8478 30.6584C75.579 29.9272 75.4997 29.1255 75.4997 28.1388ZM73.958 28.1388C73.958 29.2048 73.9139 29.3722 73.7906 29.5484C73.6496 29.7598 73.4382 29.9008 73.0506 29.9008H72.3722V26.3768H73.0506C73.4382 26.3768 73.6496 26.5178 73.7906 26.7292C73.9139 26.9054 73.958 27.0816 73.958 28.1388Z" fill="#693716"/>
<path d="M78.6393 31.2751V25.0025H77.0975V31.2751H78.6393Z" fill="#693716"/>
<path d="M85.0118 28.1388C85.0118 27.1961 85.0382 26.3151 84.3775 25.6544C83.9193 25.1963 83.3908 24.9496 82.6243 24.9496C81.8578 24.9496 81.3292 25.1963 80.8711 25.6544C80.2104 26.3151 80.2368 27.1961 80.2368 28.1388C80.2368 29.0814 80.2104 29.9624 80.8711 30.6232C81.3292 31.0813 81.8578 31.328 82.6243 31.328C83.3908 31.328 83.9193 31.0813 84.3775 30.6232C85.0382 29.9624 85.0118 29.0814 85.0118 28.1388ZM83.47 28.1388C83.47 29.2841 83.3819 29.4867 83.241 29.6717C83.1265 29.8215 82.9062 29.9536 82.6243 29.9536C82.3424 29.9536 82.1221 29.8215 82.0076 29.6717C81.8666 29.4867 81.7785 29.2841 81.7785 28.1388C81.7785 26.9935 81.8666 26.7821 82.0076 26.597C82.1221 26.4473 82.3424 26.3239 82.6243 26.3239C82.9062 26.3239 83.1265 26.4473 83.241 26.597C83.3819 26.7821 83.47 26.9935 83.47 28.1388Z" fill="#693716"/>
</g>
</svg>
