<svg width="36" height="18" viewBox="0 0 36 18" fill="none" xmlns="http://www.w3.org/2000/svg">
<rect width="36" height="18" rx="9" fill="#FA5251" style="fill:#FA5251;fill:color(display-p3 0.9804 0.3216 0.3176);fill-opacity:1;"/>
<path d="M13.1675 5V13H11.6061L8.56139 7.63736V13H7V5H8.56139L11.6113 10.3681V5H13.1675Z" fill="white" style="fill:white;fill:white;fill-opacity:1;"/>
<path d="M19.6108 11.7143V13H15.5772V11.7143H19.6108ZM16.0873 5V13H14.5259V5H16.0873ZM19.0852 8.25824V9.51099H15.5772V8.25824H19.0852ZM19.6056 5V6.29121H15.5772V5H19.6056Z" fill="white" style="fill:white;fill:white;fill-opacity:1;"/>
<path d="M22.8213 11.7308L24.3306 5H25.1738L25.3663 6.12088L23.7581 13H22.8525L22.8213 11.7308ZM22.0458 5L23.2949 11.7308L23.1908 13H22.1811L20.5 5H22.0458ZM26.6935 11.7033L27.927 5H29.4728L27.7969 13H26.7872L26.6935 11.7033ZM25.6474 5L27.1671 11.7582L27.1255 13H26.2199L24.6013 6.11538L24.8094 5H25.6474Z" fill="white" style="fill:white;fill:white;fill-opacity:1;"/>
</svg>
